<?xml version="1.0" encoding="UTF-8" standalone="no"?>
<!-- Created with Inkscape (http://www.inkscape.org/) -->

<svg
   width="48.004429"
   height="47.997044"
   viewBox="0 0 12.701172 12.699218"
   version="1.1"
   id="svg1"
   xml:space="preserve"
   xmlns:xlink="http://www.w3.org/1999/xlink"
   xmlns="http://www.w3.org/2000/svg"
   xmlns:svg="http://www.w3.org/2000/svg"><defs
     id="defs1"><linearGradient
       id="linearGradient2"><stop
         style="stop-color:#8a90a8;stop-opacity:1"
         offset="0.68779135"
         id="stop39" /><stop
         style="stop-color:#636883;stop-opacity:1;"
         offset="0.68779135"
         id="stop40" /></linearGradient><linearGradient
       xlink:href="#linearGradient2"
       id="linearGradient834"
       gradientUnits="userSpaceOnUse"
       gradientTransform="matrix(0.33069664,0,0,0.33333334,0.05022912,-33.866666)"
       x1="23.283487"
       y1="-36.247658"
       x2="23.283487"
       y2="-27.550001" /><linearGradient
       xlink:href="#linearGradient2"
       id="linearGradient835"
       gradientUnits="userSpaceOnUse"
       gradientTransform="matrix(0.33597004,0,0,0.33333334,-0.05022901,-33.866666)"
       x1="14.584153"
       y1="-36.251179"
       x2="14.584153"
       y2="-27.474903" /><linearGradient
       xlink:href="#linearGradient2"
       id="linearGradient836"
       gradientUnits="userSpaceOnUse"
       gradientTransform="matrix(0.33333334,0,0,0.33069657,1.5442047e-8,-33.950383)"
       x1="19.049999"
       y1="-31.75"
       x2="19.049999"
       y2="-12.7" /></defs><g
     id="layer15"
     style="display:inline"
     transform="translate(-38.102895,-25.399381)"><g
       id="g793"
       transform="translate(38.153676,76.24899)"
       style="display:inline;stroke-width:1.00013;stroke-dasharray:none"><path
         id="path788"
         style="fill:#8a90a8;fill-opacity:1;stroke-width:1.00013;stroke-linecap:round;stroke-linejoin:round;stroke-dasharray:none"
         d="M 4.8496094,-49.849609 H 7.75 v 3.90039 L 6.3500002,-44.45 4.8496094,-45.949219 Z" /><path
         id="path789"
         style="fill:url(#linearGradient834);stroke-width:1.00012;stroke-linecap:round;stroke-linejoin:round;stroke-dasharray:none"
         d="m 11.650391,-45.949219 v 2.898438 L 7.75,-43.05 6.3500002,-44.449999 7.75,-45.949219 Z" /><path
         id="path790"
         style="fill:url(#linearGradient835);stroke-width:1.00013;stroke-linecap:round;stroke-linejoin:round;stroke-dasharray:none"
         d="m 0.94921875,-43.050781 v -2.898438 l 3.90039065,-0.0012 1.5003909,1.500394 -1.5003909,1.425032 z" /><path
         id="path791"
         style="fill:url(#linearGradient836);stroke-width:1.00012;stroke-linecap:round;stroke-linejoin:round;stroke-dasharray:none"
         d="M 4.8496094,-39.150391 H 7.75 V -43.05 l -1.3999998,-1.399999 -1.5003908,1.425032 z" /><path
         style="color:#000000;fill:#434a5f;stroke-linecap:round;stroke-linejoin:round;stroke-miterlimit:0;-inkscape-stroke:none;paint-order:fill markers stroke"
         d="m 4.3496094,-50.849609 c -0.2761172,6.1e-5 -0.4999393,0.223883 -0.5,0.5 v 3.398437 H 0.44921875 c -0.27611721,6.1e-5 -0.49993926,0.223883 -0.5,0.5 v 3.900391 c 6.074e-5,0.276117 0.22388279,0.499939 0.5,0.5 H 3.8496094 v 3.40039 c 6.07e-5,0.276117 0.2238828,0.499939 0.5,0.5 H 8.25 c 0.2761172,-6.1e-5 0.4999393,-0.223883 0.5,-0.5 v -3.40039 h 3.400391 c 0.276117,-6.1e-5 0.499939,-0.223883 0.5,-0.5 v -3.900391 c -6.1e-5,-0.276117 -0.223883,-0.499939 -0.5,-0.5 H 8.75 v -3.398437 c -6.07e-5,-0.276117 -0.2238828,-0.499939 -0.5,-0.5 z m 0.5,1 H 7.75 v 3.90039 h 3.900391 v 2.898438 H 7.75 v 3.90039 H 4.8496094 v -3.90039 H 0.94921875 v -2.898438 H 4.8496094 Z"
         id="path792" /><path
         id="path793"
         style="display:inline;mix-blend-mode:color;fill:#23c3f6;fill-opacity:1;stroke-width:1.00012;stroke-linecap:round;stroke-linejoin:round;stroke-dasharray:none"
         d="M 4.8496094,-39.150391 H 7.75 V -43.05 l -1.3999998,-1.399999 -1.5003908,1.425032 z" /></g></g></svg>
