<?xml version="1.0" encoding="UTF-8" standalone="no"?>
<!-- Created with Inkscape (http://www.inkscape.org/) -->

<svg
   width="33.732445"
   height="47.943359"
   viewBox="0 0 8.9250427 12.685014"
   version="1.1"
   id="svg1"
   xml:space="preserve"
   xmlns:xlink="http://www.w3.org/1999/xlink"
   xmlns="http://www.w3.org/2000/svg"
   xmlns:svg="http://www.w3.org/2000/svg"><defs
     id="defs1"><linearGradient
       id="linearGradient301"><stop
         style="stop-color:#ffffff;stop-opacity:1;"
         offset="0.68779135"
         id="stop300" /><stop
         style="stop-color:#b2b2b2;stop-opacity:1;"
         offset="0.68779135"
         id="stop301" /></linearGradient><radialGradient
       xlink:href="#linearGradient301"
       id="radialGradient44"
       cx="107.79296"
       cy="32.75127"
       fx="107.79296"
       fy="32.75127"
       r="3.75406"
       gradientTransform="matrix(1.7015836,0,-3.2954374e-8,2.5971603,-75.625776,-55.022156)"
       gradientUnits="userSpaceOnUse" /></defs><g
     id="layer8"
     style="display:inline"
     transform="translate(-101.6,-25.4)"><g
       id="rect306"
       transform="matrix(0.97328752,0,0,0.93748577,1.1500119,1.9773648)"><path
         style="color:#000000;display:inline;fill:url(#radialGradient44);stroke-linecap:round;stroke-linejoin:round;stroke-miterlimit:0;-inkscape-stroke:none;paint-order:fill markers stroke"
         d="m 104.0389,31.345644 v 2.392862 c 0,0 0.006,1.00841 0.48051,2.001493 0.47469,0.993084 1.334,1.943614 3.27382,1.943614 1.9398,0 2.79859,-0.95053 3.27329,-1.943614 0.47447,-0.993083 0.4805,-2.001493 0.4805,-2.001493 v -2.392862 h -2.45085 c -0.22027,0.583621 -0.66744,0.899597 -1.30454,0.899597 -0.60752,0 -1.03348,-0.358342 -1.27215,-0.899597 z"
         id="path9" /><path
         style="color:#000000;display:inline;fill:#ffffff;fill-opacity:1;stroke-linecap:round;stroke-linejoin:round;stroke-miterlimit:0;-inkscape-stroke:none;paint-order:fill markers stroke"
         d="m 107.79163,28.678824 c -0.39165,0 -0.69182,0.314394 -0.69182,0.721 v 1.276634 c 0,0.406606 0.30017,0.721001 0.69182,0.721001 0.39165,0 0.69448,-0.314395 0.69448,-0.721001 v -1.276634 c 0,-0.406606 -0.30283,-0.721 -0.69448,-0.721 z"
         id="path8" /><path
         style="color:#000000;display:inline;fill:#ffffff;stroke-linecap:round;stroke-linejoin:round;stroke-miterlimit:0;-inkscape-stroke:none;paint-order:fill markers stroke"
         d="m 108.20152,25.816319 v 2.191666 c 0.60797,0.202693 1.10119,0.696241 1.10119,1.391839 v 1.097487 h 2.24431 V 28.50574 c -1e-5,-1.490761 -1.20061,-2.689421 -2.69137,-2.689421 z"
         id="path7" /><path
         style="color:#000000;display:inline;fill:#ffffff;stroke-linecap:round;stroke-linejoin:round;stroke-miterlimit:0;-inkscape-stroke:none;paint-order:fill markers stroke"
         d="m 106.72868,25.816319 c -1.49077,0 -2.68978,1.19866 -2.68978,2.689421 v 1.991571 h 2.24378 v -1.097487 c 0,-0.696288 0.49282,-1.189725 1.10172,-1.391839 v -2.191666 z"
         id="path310" /><path
         id="path1"
         style="color:#000000;display:inline;fill:#434a5f;stroke:none;stroke-linecap:round;stroke-linejoin:round;stroke-miterlimit:0;-inkscape-stroke:none;paint-order:fill markers stroke"
         d="m 106.72868,24.984523 c -1.93985,0 -3.52178,1.581371 -3.52178,3.521217 v 5.232766 c 0,0 -0.005,1.171679 0.56281,2.359237 0.56765,1.187559 1.79397,2.417667 4.02352,2.417667 2.22954,0 3.45533,-1.230108 4.02298,-2.417667 0.56765,-1.187559 0.56068,-2.359237 0.56068,-2.359237 V 28.50574 c 0,-1.939846 -1.58139,-3.521217 -3.52124,-3.521217 z m 0,0.831796 h 0.65572 v 2.191666 c -0.6089,0.202114 -1.10172,0.695551 -1.10172,1.391839 v 1.097487 H 104.0389 V 28.50574 c 0,-1.490762 1.19901,-2.689421 2.68978,-2.689421 z m 1.47284,0 h 0.65413 c 1.49076,0 2.69136,1.198659 2.69137,2.689421 v 1.991571 h -2.24431 v -1.097487 c 0,-0.695598 -0.49322,-1.189146 -1.10119,-1.391839 z m -0.40989,2.862505 c 0.39165,0 0.69448,0.314394 0.69448,0.721 v 1.276634 c 0,0.406606 -0.30283,0.721001 -0.69448,0.721001 -0.39165,0 -0.69182,-0.314395 -0.69182,-0.721001 v -1.276634 c 0,-0.406606 0.30017,-0.721 0.69182,-0.721 z m 3.75539,2.666269 v 2.393413 c 0,0 -0.006,1.008409 -0.4805,2.001493 -0.4747,0.993085 -1.33348,1.943614 -3.27329,1.943614 -1.93982,0 -2.79913,-0.950529 -3.27382,-1.943614 -0.47469,-0.993084 -0.48051,-2.001493 -0.48051,-2.001493 v -2.392862 h 2.48058 c 0.23867,0.541255 0.66463,0.899597 1.27215,0.899597 0.6371,0 1.08427,-0.315976 1.30454,-0.899597 z" /></g></g></svg>
