<?xml version="1.0" encoding="UTF-8" standalone="no"?>
<!-- Created with Inkscape (http://www.inkscape.org/) -->

<svg
   width="32.766945"
   height="29.644445"
   viewBox="0 0 8.6695875 7.8434262"
   version="1.1"
   id="svg1"
   xml:space="preserve"
   xmlns="http://www.w3.org/2000/svg"
   xmlns:svg="http://www.w3.org/2000/svg"><defs
     id="defs1" /><g
     id="layer14"
     style="display:inline"
     transform="translate(-127,-317.49999)"><g
       id="g24"
       transform="matrix(1.3431298,-1.0498569,1.0498569,1.3431298,-346.99201,49.802238)"
       style="display:inline"><circle
         style="fill:#ffffff;fill-opacity:1;stroke:none;stroke-width:1.0294;stroke-linecap:round;stroke-linejoin:round;stroke-miterlimit:2.66;stroke-dasharray:none;stroke-opacity:1;paint-order:stroke fill markers"
         id="path18"
         cx="122.62405"
         cy="297.14117"
         r="0.82351542" /><circle
         style="fill:none;fill-opacity:1;stroke:#ffffff;stroke-width:0.307214;stroke-linecap:round;stroke-linejoin:round;stroke-miterlimit:2.66;stroke-dasharray:none;stroke-opacity:1;paint-order:stroke fill markers"
         id="circle18"
         cx="122.62405"
         cy="297.14117"
         r="1.409755" /><path
         stroke="none"
         fill="#ffffff"
         d="m 123.20893,300.14538 c 0.37819,0 0.73638,0.1952 0.73638,0.65961 0.0157,0.17107 0,1.92833 0,1.92833 0,0.79825 -0.95296,0.90874 -1.52025,0.90874 -0.46594,0 -0.8768,-0.13016 -1.23379,-0.4488 l -0.15931,-0.17151 c -0.19145,-0.24869 -0.42961,-0.45429 -0.71445,-0.61681 -0.12457,-0.069 -0.72824,-0.0322 -1.00539,-0.55805 -0.29781,-0.51582 0.1165,-0.91114 0.39365,-1.01125 0.4597,-0.16203 0.73349,0.12238 0.90511,0.20194 v -1.78775 c 0,-1.12144 1.34494,-1.17078 1.34494,0 v 0.8956 z"
         id="path2-5"
         style="display:inline;fill:#23c3f6;fill-opacity:1;stroke:#434a5f;stroke-width:1.32292;stroke-linecap:round;stroke-linejoin:round;stroke-dasharray:none;stroke-opacity:1;paint-order:stroke fill markers"
         transform="matrix(0.5865938,0,0,0.5865938,51.493331,122.49536)" /></g></g></svg>
